# xmcd
#
# Track frame offsets: 
#        150
#        13508
#        26821
#        39384
#        60809
#        74067
#        92564
#        104282
#        120088
#        131458
#        156104
#
# Disc length: 2320 seconds
#
# Revision: 0
# Processed by: cddbd v1.5.2PL0 Copyright (c) Steve Scherf et al.
# Submitted via: ExactAudioCopy v1.3
#
DISCID=80090e0b
DTITLE=Chigger Hill Boys and Terri - Hymns From Chigger Hill
DYEAR=2008
DGENRE=Gospel
TTITLE0=In The Sweet By and By
TTITLE1=In the Garden
TTITLE2=Since Jesus Came Into My Heart
TTITLE3=Blessed Assurance
TTITLE4=Leaning on the Everlasting Arms
TTITLE5=Oh How I Love Jesus
TTITLE6=When the Roll Is Called Up Yonder
TTITLE7=Without Him
TTITLE8=Are You Washed In the Blood
TTITLE9=Farther Along
TTITLE10=Softly and Tenderly
EXTD=
EXTT0=
EXTT1=
EXTT2=
EXTT3=
EXTT4=
EXTT5=
EXTT6=
EXTT7=
EXTT8=
EXTT9=
EXTT10=
PLAYORDER=
